<svg width="3000" height="3000" viewBox="0 0 3000 3000" fill="none" xmlns="http://www.w3.org/2000/svg">
<path fill-rule="evenodd" clip-rule="evenodd" d="M2807.06 2937.66C2995.74 2814.1 3056.41 2547.86 2942.58 2343.04L1863.8 401.903C1792.24 273.136 1664.28 193.879 1525.75 192.527C1387.23 191.175 1257.96 267.921 1184.28 395.272L61.1698 2336.41C-56.0332 2538.98 0.225616 2806.34 186.832 2933.59C373.439 3060.82 619.723 2999.75 736.935 2797.17L1417.87 1620.27C1462.56 1543.03 1566.56 1544.04 1609.97 1622.15L2259.3 2790.54C2373.14 2995.38 2618.37 3061.24 2807.06 2937.66Z" fill="url(#paint0_linear_155_9)"/>
<path d="M14.8359 417.103V1545.49C14.8359 1655.03 146.91 1696.23 200.488 1603.4L702.905 732.841C755.424 641.835 783.276 536.614 783.276 429.223V417.103C783.276 186.743 611.254 0 399.051 0C186.857 0 14.8359 186.743 14.8359 417.103Z" fill="url(#paint1_linear_155_9)"/>
<path d="M2571.39 0.00280762C2808.07 0.00280762 2999.94 208.293 2999.94 465.233C2999.94 722.173 2808.07 930.463 2571.39 930.463C2334.7 930.463 2142.83 722.173 2142.83 465.233C2142.83 208.293 2334.7 0.00280762 2571.39 0.00280762Z" fill="#282525"/>
<defs>
<linearGradient id="paint0_linear_155_9" x1="1188.69" y1="-240.185" x2="4383.75" y2="4743.65" gradientUnits="userSpaceOnUse">
<stop stop-color="#C6003A"/>
<stop offset="1" stop-color="#FEC131"/>
</linearGradient>
<linearGradient id="paint1_linear_155_9" x1="319.314" y1="-296.698" x2="2416.85" y2="925.53" gradientUnits="userSpaceOnUse">
<stop stop-color="#C6003A"/>
<stop offset="1" stop-color="#FEC131"/>
</linearGradient>
</defs>
</svg>
