<svg width="24" height="24" viewBox="0 0 24 24" fill="none" xmlns="http://www.w3.org/2000/svg">
<path d="M19.5 12C19.5 11.8011 19.579 11.6103 19.7197 11.4697C19.8603 11.329 20.0511 11.25 20.25 11.25C20.4489 11.25 20.6397 11.329 20.7803 11.4697C20.921 11.6103 21 11.8011 21 12V20.25C21 20.4489 20.921 20.6397 20.7803 20.7803C20.6397 20.921 20.4489 21 20.25 21H3.75C3.55109 21 3.36032 20.921 3.21967 20.7803C3.07902 20.6397 3 20.4489 3 20.25V3.75C3 3.55109 3.07902 3.36032 3.21967 3.21967C3.36032 3.07902 3.55109 3 3.75 3H12C12.1989 3 12.3897 3.07902 12.5303 3.21967C12.671 3.36032 12.75 3.55109 12.75 3.75C12.75 3.94891 12.671 4.13968 12.5303 4.28033C12.3897 4.42098 12.1989 4.5 12 4.5H4.5V19.5H19.5V12Z" fill="black"/>
<path d="M11.0145 12.9904L12.252 12.8134L19.854 5.21287C19.9256 5.14369 19.9827 5.06093 20.0221 4.96943C20.0614 4.87793 20.082 4.77951 20.0829 4.67993C20.0838 4.58034 20.0648 4.48158 20.0271 4.38941C19.9894 4.29724 19.9337 4.2135 19.8633 4.14308C19.7929 4.07266 19.7091 4.01697 19.6169 3.97926C19.5248 3.94155 19.426 3.92257 19.3264 3.92344C19.2268 3.9243 19.1284 3.94499 19.0369 3.9843C18.9454 4.02361 18.8627 4.08074 18.7935 4.15237L11.19 11.7529L11.013 12.9904H11.0145ZM20.9145 3.09037C21.1236 3.29933 21.2894 3.54743 21.4026 3.8205C21.5158 4.09358 21.574 4.38628 21.574 4.68187C21.574 4.97747 21.5158 5.27017 21.4026 5.54325C21.2894 5.81632 21.1236 6.06442 20.9145 6.27338L13.137 14.0509C13.0223 14.166 12.8733 14.2407 12.7125 14.2639L10.2375 14.6179C10.1221 14.6344 10.0045 14.6239 9.89395 14.5871C9.78339 14.5503 9.68293 14.4882 9.60053 14.4058C9.51813 14.3234 9.45607 14.223 9.41926 14.1124C9.38245 14.0018 9.37191 13.8842 9.38848 13.7689L9.74248 11.2939C9.7652 11.1332 9.83942 10.9843 9.95398 10.8694L17.733 3.09188C18.1549 2.67007 18.7271 2.43311 19.3237 2.43311C19.9203 2.43311 20.4925 2.67007 20.9145 3.09188V3.09037Z" fill="black"/>
</svg>
