<svg width="13" height="13" viewBox="0 0 13 13" fill="none" xmlns="http://www.w3.org/2000/svg">
<path fill-rule="evenodd" clip-rule="evenodd" d="M6.21927 0C9.65417 0 12.4385 2.78437 12.4385 6.21927C12.4385 9.65417 9.65417 12.4385 6.21927 12.4385C2.78437 12.4385 0 9.65417 0 6.21927C0 2.78437 2.78437 0 6.21927 0ZM6.8412 1.28241V1.86578C6.84102 2.0243 6.78032 2.17676 6.6715 2.29203C6.56269 2.4073 6.41396 2.47666 6.25572 2.48595C6.09747 2.49524 5.94165 2.44375 5.8201 2.34201C5.69854 2.24027 5.62042 2.09595 5.6017 1.93855L5.59734 1.86578V1.28241C4.52873 1.41736 3.5327 1.89522 2.75873 2.6443C1.98476 3.39337 1.4746 4.37325 1.3048 5.43688L1.28241 5.59734H1.86578C2.0243 5.59752 2.17676 5.65822 2.29203 5.76703C2.4073 5.87585 2.47666 6.02458 2.48595 6.18282C2.49524 6.34106 2.44375 6.49688 2.34201 6.61844C2.24027 6.74 2.09595 6.81812 1.93855 6.83684L1.86578 6.8412H1.28241C1.43269 8.02985 2.00679 9.12436 2.89927 9.92371C3.79175 10.7231 4.94266 11.1736 6.14063 11.1925C7.33859 11.2114 8.50315 10.7974 9.42041 10.0266C10.3377 9.25585 10.946 8.17999 11.1337 6.99668L11.1561 6.8412H10.5728C10.4142 6.84102 10.2618 6.78032 10.1465 6.6715C10.0312 6.56269 9.96188 6.41396 9.95259 6.25572C9.9433 6.09747 9.99478 5.94165 10.0965 5.8201C10.1983 5.69854 10.3426 5.62042 10.5 5.6017L10.5728 5.59734H11.1561C11.0204 4.51284 10.5305 3.50347 9.76239 2.72591L8.25484 5.68566L8.15844 5.8685L7.96564 6.24788C7.73553 6.69566 7.48551 7.15216 7.14283 7.49484C6.53832 8.09873 5.53328 8.17212 4.90016 7.53838C4.26642 6.90525 4.33981 5.90022 4.9437 5.29571C5.23725 5.00216 5.61413 4.7764 5.99849 4.57303L6.57004 4.2801L7.09805 4.00397L9.71201 2.67615C8.93461 1.90819 7.92548 1.41827 6.8412 1.28241ZM6.94195 5.49659L6.81134 5.56625L6.67701 5.63652C6.42699 5.76651 6.16578 5.90146 5.94811 6.07063L5.8231 6.17636L5.7777 6.2286C5.65767 6.3903 5.69374 6.57315 5.77957 6.65897C5.86539 6.7448 6.04824 6.78087 6.20994 6.66084L6.26343 6.61481L6.36791 6.49043C6.50287 6.31629 6.61668 6.11416 6.72303 5.91204L6.80201 5.76153C6.84845 5.67031 6.8951 5.582 6.94195 5.49659Z" fill="white"/>
</svg>
