<svg width="33" height="33" viewBox="0 0 33 33" fill="none" xmlns="http://www.w3.org/2000/svg">
<g clip-path="url(#clip0_29_1813)">
<path d="M33 24.6257C33 24.8065 32.9944 25.1964 32.983 25.5015C32.9548 26.2418 32.8983 27.1967 32.8079 27.6318C32.6723 28.2873 32.4745 28.9033 32.2089 29.4175C31.8981 30.0277 31.5026 30.5702 31.0279 31.0392C30.5589 31.5082 30.0164 31.9038 29.4062 32.2146C28.892 32.4801 28.2704 32.6779 27.6092 32.8135C27.1798 32.8983 26.2305 32.9604 25.4959 32.983C25.1908 32.9944 24.8009 33 24.62 33H8.36866C8.18784 33 7.79795 32.9944 7.49281 32.983C6.75257 32.9548 5.7976 32.8983 5.3625 32.8079C4.70702 32.6723 4.0911 32.4745 3.57688 32.2089C2.96661 31.8981 2.42414 31.5026 1.95514 31.0279C1.48613 30.5589 1.09058 30.0164 0.779795 29.4062C0.514212 28.892 0.316438 28.2704 0.180822 27.6092C0.0960616 27.1798 0.0339041 26.2305 0.0113014 25.4959C0.00565069 25.1964 0 24.8065 0 24.6257V8.37432C0 8.19349 0.00565069 7.8036 0.0169521 7.49846C0.0452055 6.75822 0.101712 5.80325 0.192123 5.36815C0.32774 4.71267 0.525514 4.09675 0.791096 3.58253C1.10188 2.97226 1.49743 2.42979 1.96644 1.96079C2.43545 1.49178 2.97791 1.09623 3.58819 0.785445C4.1024 0.519863 4.72397 0.322089 5.3851 0.186473C5.81456 0.101712 6.76387 0.0395548 7.49846 0.0169521C7.8036 0.00565069 8.19349 0 8.37432 0H24.6257C24.8065 0 25.1964 0.00565069 25.5015 0.0169521C26.2418 0.0452055 27.1967 0.101712 27.6318 0.192123C28.2873 0.32774 28.9033 0.525514 29.4175 0.791096C30.0277 1.10188 30.5702 1.49743 31.0392 1.97209C31.5082 2.4411 31.9038 2.98356 32.2146 3.59384C32.4801 4.10805 32.6779 4.72962 32.8135 5.39075C32.8983 5.82021 32.9604 6.76952 32.983 7.50411C32.9944 7.80925 33 8.19914 33 8.37997V24.6257Z" fill="url(#paint0_linear_29_1813)"/>
<path fill-rule="evenodd" clip-rule="evenodd" d="M25.1794 7.90004C22.9586 5.67932 20.0033 4.45312 16.8559 4.45312C10.3689 4.45312 5.09683 9.73086 5.09118 16.2122C5.09118 18.286 5.63364 20.3089 6.66207 22.0889L4.99512 28.186L11.2335 26.5529C12.9513 27.491 14.8838 27.9826 16.8559 27.9826H16.8616C23.3429 27.9826 28.6206 22.7048 28.6263 16.2235C28.6263 13.0761 27.4001 10.1208 25.1794 7.90004ZM16.8616 25.9935C15.1042 25.9935 13.3807 25.5189 11.8833 24.6317L11.5273 24.4226L7.82611 25.3946L8.81498 21.7894L8.5833 21.4221C7.60573 19.8682 7.08587 18.0656 7.08587 16.2178C7.08587 10.8271 11.4765 6.44217 16.8672 6.44217C19.4778 6.44217 21.9359 7.45929 23.778 9.30706C25.6258 11.1548 26.6429 13.6129 26.6372 16.2235C26.6316 21.6086 22.2467 25.9935 16.8616 25.9935ZM22.2241 18.6759C21.9302 18.529 20.4836 17.817 20.2181 17.7209C19.9468 17.6249 19.7547 17.574 19.5569 17.8679C19.3592 18.1617 18.7997 18.8228 18.6246 19.0206C18.455 19.2184 18.2799 19.241 17.986 19.094C17.6922 18.9471 16.7429 18.6363 15.6241 17.6362C14.7482 16.8564 14.1605 15.8958 13.991 15.6019C13.8215 15.3081 13.9741 15.1499 14.121 15.003C14.2509 14.873 14.4148 14.6583 14.5617 14.4887C14.7086 14.3192 14.7595 14.1949 14.8556 13.9971C14.9516 13.7994 14.9064 13.6298 14.833 13.4829C14.7595 13.336 14.1718 11.8894 13.9289 11.3018C13.6915 10.731 13.4485 10.8045 13.2677 10.7988C13.0982 10.7875 12.9004 10.7875 12.7027 10.7875C12.5049 10.7875 12.1884 10.861 11.9172 11.1548C11.646 11.4487 10.8888 12.1607 10.8888 13.6072C10.8888 15.0538 11.9398 16.4495 12.0867 16.6473C12.2336 16.8451 14.1605 19.8117 17.1102 21.0831C17.8109 21.3882 18.359 21.569 18.7884 21.7047C19.4948 21.9307 20.1333 21.8968 20.6419 21.8233C21.2069 21.7386 22.3823 21.1113 22.6253 20.4276C22.8682 19.7439 22.8682 19.1506 22.7948 19.0319C22.71 18.8963 22.5179 18.8228 22.2241 18.6759Z" fill="white"/>
</g>
<defs>
<linearGradient id="paint0_linear_29_1813" x1="16.5013" y1="33.0025" x2="16.5013" y2="0" gradientUnits="userSpaceOnUse">
<stop stop-color="#25CF43"/>
<stop offset="1" stop-color="#61FD7D"/>
</linearGradient>
<clipPath id="clip0_29_1813">
<rect width="33" height="33" fill="white"/>
</clipPath>
</defs>
</svg>
